# xmcd CD database file
#
# Track frame offsets:
#	150
#	8512
#	17580
#	23197
#	28592
#	33295
#	37187
#	42955
#	45355
#	51652
#	55402
#	58700
#	62437
#	67737
#	73475
#	79622
#	86815
#	97795
#	101495
#	105752
#	114750
#	123720
#	127932
#	130997
#	135247
#	145137
#	155005
#	166612
#	171185
#	182767
#	191085
#	199377
#	209995
#	216957
#	223927
#	233977
#	243727
#	247870
#	259702
#	270262
#	280985
#	288177
#	295575
#	305762
#	308130
#	310592
#	313057
#	315522
#	317957
#	320547
#	323010
#	325485
#	327955
#	330500
#	332955
#	335395
#
# Disc length: 4504 seconds
#
# Revision: 0
# Processed by: cddbd v1.5.1PL0 Copyright (c) Steve Scherf et al.
# Submitted via: CDex 1.51
#
DISCID=38119638
DTITLE=Sonoton Authentic Series - SAS 055 - Authentic  Australia
DYEAR=1995
DGENRE=Contentum
TTITLE0=Aboriginal - Didgeridod morning
TTITLE1=Aboriginal - Emu
TTITLE2=Aboriginal - Dingo
TTITLE3=Aboriginal - Aboriginal Chants 1
TTITLE4=Aboriginal - Aboriginal Chants 2
TTITLE5=Aboriginal - Aboriginal Chants 3
TTITLE6=Aboriginal - Aboriginal Chants 4
TTITLE7=Aboriginal - Aboriginal Chants 5
TTITLE8=Aboriginal - Aboriginal Chants 6
TTITLE9=Aboriginal - Aboriginal Chants 7
TTITLE10=Aboriginal - Aboriginal Chants 8
TTITLE11=Aboriginal - Aboriginal Chants 9
TTITLE12=Aboriginal - Aboriginal Chants 10
TTITLE13=Aboriginal - Aboriginal Chants 11
TTITLE14=Aboriginal - Aboriginal Chants 12
TTITLE15=Aboriginal - Aboriginal Chants 13
TTITLE16=Bush Bands and Songs - Waltzing Matilda 1
TTITLE17=Bush Bands and Songs - Waltzing Matilda 2
TTITLE18=Bush Bands and Songs - Waltzing Matilda 3
TTITLE19=Bush Bands and Songs - The Drovers Dream 1
TTITLE20=Bush Bands and Songs - The Drovers Dream 2
TTITLE21=Bush Bands and Songs - The Overlanders 1
TTITLE22=Bush Bands and Songs - The Overlanders 2
TTITLE23=Bush Bands and Songs - The Overlanders 3
TTITLE24=Bush Bands and Songs - Click go the shears 1
TTITLE25=Bush Bands and Songs - Click go the shears 2
TTITLE26=Bush Bands and Songs - Botany Bay 1
TTITLE27=Bush Bands and Songs - Botany Bay 2
TTITLE28=Bush Bands and Songs - Botany Bay 3
TTITLE29=Bush Bands and Songs - Flash jack from Gundagai 1
TTITLE30=Bush Bands and Songs - Flash jack from Gundagai 2
TTITLE31=Bush Bands and Songs - Wild colonial boy
TTITLE32=Country Bands - Good ol' days 1
TTITLE33=Country Bands - Good ol' days 2
TTITLE34=Country Bands - Brumby run
TTITLE35=Country Bands - Night in town
TTITLE36=Country Bands - Bush dance
TTITLE37=Descriptive Moods - The crossing
TTITLE38=Descriptive Moods - Road train 1
TTITLE39=Descriptive Moods - Desert feel
TTITLE40=Descriptive Moods - Daybreak awakening
TTITLE41=Descriptive Moods - Bird call
TTITLE42=Descriptive Moods - Fireside 
TTITLE43=Descriptive Moods - Waltzing Matilda
TTITLE44=Descriptive Moods - The drovers dream
TTITLE45=Descriptive Moods - The overlanders
TTITLE46=Descriptive Moods - Botany bay
TTITLE47=Descriptive Moods - Flash Jack from Gundagai
TTITLE48=Descriptive Moods - Good ol' Days
TTITLE49=Descriptive Moods - Brumby run
TTITLE50=Descriptive Moods - Night in town
TTITLE51=Descriptive Moods - Bush dance
TTITLE52=Descriptive Moods - The crossing
TTITLE53=Descriptive Moods - Road train 2
TTITLE54=Descriptive Moods - Daybreak awakening 2
TTITLE55=Descriptive Moods - Fireside 2
EXTD=YEAR: 1995
EXTT0=
EXTT1=
EXTT2=
EXTT3=
EXTT4=
EXTT5=
EXTT6=
EXTT7=
EXTT8=
EXTT9=
EXTT10=
EXTT11=
EXTT12=
EXTT13=
EXTT14=
EXTT15=
EXTT16=
EXTT17=
EXTT18=
EXTT19=
EXTT20=
EXTT21=
EXTT22=
EXTT23=
EXTT24=
EXTT25=
EXTT26=
EXTT27=
EXTT28=
EXTT29=
EXTT30=
EXTT31=
EXTT32=
EXTT33=
EXTT34=
EXTT35=
EXTT36=
EXTT37=
EXTT38=
EXTT39=
EXTT40=
EXTT41=
EXTT42=
EXTT43=
EXTT44=
EXTT45=
EXTT46=
EXTT47=
EXTT48=
EXTT49=
EXTT50=
EXTT51=
EXTT52=
EXTT53=
EXTT54=
EXTT55=
PLAYORDER=
